<?xml version="1.0" encoding="utf-8"?>
<!-- Generator: Adobe Illustrator 27.3.1, SVG Export Plug-In . SVG Version: 6.00 Build 0)  -->
<svg version="1.1" xmlns="http://www.w3.org/2000/svg" xmlns:xlink="http://www.w3.org/1999/xlink" x="0px" y="0px"
	 viewBox="0 0 1600.8 460.8" style="enable-background:new 0 0 1600.8 460.8;" xml:space="preserve">
<style type="text/css">
	.st0{fill:#FFFFFF;}
	.st1{fill:#DE0301;}
	.st2{fill:#2175A6;}
	.st3{fill:#3B3B3B;}
	.st4{font-family:'ArialMT';}
	.st5{font-size:170px;}
	.st6{fill:none;stroke:#000000;stroke-width:0.75;stroke-miterlimit:10;}
	.st7{fill:none;stroke:#000000;stroke-width:0.5;stroke-miterlimit:10;}
	.st8{font-size:53px;}
</style>
<g id="Warstwa_1">
</g>
<g id="Warstwa_2">
	<g id="Layer_1">
		<g>
			<rect x="-81.6" y="528" class="st0" width="1600.8" height="460.8"/>
		</g>
		<g>
			<g>
				<polygon class="st1" points="81.1,330.4 111.8,325.2 111.8,179.6 90.2,179.6 219,89.9 237.5,103.1 260.8,86.8 219,58.9 
					18.6,192.9 81.1,192.9 				"/>
				<polygon class="st2" points="434.6,58.9 392.8,86.8 416.1,103.1 434.6,89.9 563.4,179.6 541.8,179.6 541.8,335.9 572.5,342.3 
					572.5,192.9 635,192.9 				"/>
				<path class="st3" d="M503.1,336.9c-88.3-15.1-203.7-19.3-293.7-13.4c-52.3,3.7-105,10-155.3,22.9l0,0
					c-14.5,3.4-21.9,16.8-15.2,27.7c6,9.9,20.8,13.9,33.1,9.1c22.3-7.4,45.6-13,68.9-17.9c60.1-12.5,122.4-19.3,184.6-21.2
					c102.7-3,205.3,7.9,304,31l30.9,8.5C660.5,383.5,586.1,351.1,503.1,336.9z"/>
				<path class="st3" d="M189,316.8c10.7-0.9,21.3-1.7,32-2.4V179.6h-19.2l125-89.6l127.1,89.6H434v137c10.3,0.8,20.5,1.6,30.5,2.7
					V192.9H527l-200.3-134l-200.2,134H189V316.8z"/>
				<g>
					<path class="st1" d="M317.6,303.6c0,0-87.8,1.5-81.3-90.7c0,0,11.3,20,18.7,20.1c-3.9-0.1-1.4-18.4-1.1-19.8
						c5.3-19.2,28.1-31.3,43-46.2c15.8-15.6,32.1-35.3,35.5-55.4c3.4,16.4,14.3,38.2,19.6,50.7c9.6,22.9-3.5,57.7-15.3,79.6
						c-5.1,9.6-10.6,19-16.4,28.3c0,0-6.6,10.3-5.9,23.1c0,0-16.2-12.4-8.1-49.5c0,0,8.1-29.5,5-40.5c0,0-33.9,43.3-27.6,58.2
						c0,0-21.4-11.1-21.4-17.8C262.4,243.4,254.3,278.6,317.6,303.6z"/>
					<path class="st2" d="M336.2,260.3c0,0,37.3-63.1,22.3-99.1c0,0,77.8,47.1,52,108.2c0,0-24,42.7-84.4,34.2
						C326.3,303.6,317.6,282.8,336.2,260.3z"/>
					<path class="st0" d="M326.3,146.3c-5.3,13.9-16.2,26.4-27.7,37.9c-5,4.9-10.3,9.6-15.9,14.2c-7.5,5.8-13.1,12.4-13.6,20.8
						c-0.5,4.1-0.3,8.1-0.1,12.3c-1.2-4.1-2-8.1-2.3-12.4c-0.1-4.2,0.7-8.6,3.2-12.5c2.4-4.1,6-7.4,9.4-10.5
						c5.3-4.6,10.4-9.3,15.6-14.1C306.4,170.7,317.8,159.2,326.3,146.3L326.3,146.3z"/>
					<g>
						<path class="st0" d="M348.2,290L348.2,290c-1.1,0-2.2-0.8-2.2-1.6v-46.9c0-0.9,1-1.6,2.2-1.6l0,0c1.1,0,2.2,0.8,2.2,1.6v46.9
							C350.4,289.2,349.4,290,348.2,290z"/>
						<path class="st0" d="M347,277.3L347,277.3c0.8-0.6,2.3-0.6,3.1,0l9,6.9c0.8,0.6,0.8,1.7,0,2.4l0,0c-0.8,0.6-2.3,0.6-3.1,0
							l-9-6.9C346.2,278.9,346.2,277.9,347,277.3z"/>
						<path class="st0" d="M349.7,277.3L349.7,277.3c-0.8-0.6-2.3-0.6-3.1,0l-9,6.9c-0.8,0.6-0.8,1.7,0,2.4l0,0
							c0.8,0.6,2.3,0.6,3.1,0l9-6.9C350.6,278.9,350.6,277.9,349.7,277.3z"/>
						<path class="st0" d="M347,269L347,269c0.8-0.6,2.3-0.6,3.1,0l9,6.9c0.8,0.6,0.8,1.7,0,2.4l0,0c-0.8,0.6-2.3,0.6-3.1,0l-9-6.9
							C346.2,270.7,346.2,269.7,347,269z"/>
						<path class="st0" d="M349.7,269L349.7,269c-0.8-0.6-2.3-0.6-3.1,0l-9,6.9c-0.8,0.6-0.8,1.7,0,2.4l0,0c0.8,0.6,2.3,0.6,3.1,0
							l9-6.9C350.6,270.7,350.6,269.7,349.7,269z"/>
						<g>
							<path class="st0" d="M412.1,240.8L412.1,240.8c0,0.9-1,1.6-2.2,1.6h-61.3c-1.1,0-2.2-0.8-2.2-1.6l0,0c0-0.9,1-1.6,2.2-1.6
								h61.3C411.2,239.2,412.1,240,412.1,240.8z"/>
							<path class="st0" d="M395.6,241.8L395.6,241.8c-0.8-0.6-0.8-1.7,0-2.4l9-6.9c0.8-0.6,2.3-0.6,3.1,0l0,0
								c0.8,0.6,0.8,1.7,0,2.4l-9,6.9C397.9,242.5,396.5,242.5,395.6,241.8z"/>
							<path class="st0" d="M395.6,239.8L395.6,239.8c-0.8,0.6-0.8,1.7,0,2.4l9,6.9c0.8,0.6,2.3,0.6,3.1,0l0,0
								c0.8-0.6,0.8-1.7,0-2.4l-9-6.9C397.9,239.1,396.5,239.1,395.6,239.8z"/>
							<path class="st0" d="M384.9,241.8L384.9,241.8c-0.8-0.6-0.8-1.7,0-2.4l9-6.9c0.8-0.6,2.3-0.6,3.1,0l0,0
								c0.8,0.6,0.8,1.7,0,2.4l-9,6.9C387,242.5,385.7,242.5,384.9,241.8z"/>
							<path class="st0" d="M384.9,239.8L384.9,239.8c-0.8,0.6-0.8,1.7,0,2.4l9,6.9c0.8,0.6,2.3,0.6,3.1,0l0,0
								c0.8-0.6,0.8-1.7,0-2.4l-9-6.9C387,239.1,385.7,239.1,384.9,239.8z"/>
						</g>
						<path class="st0" d="M394,276L394,276c-0.8,0.6-2.3,0.6-3.1,0l-43.3-33.1c-0.8-0.6-0.8-1.7,0-2.4l0,0c0.8-0.6,2.3-0.6,3.1,0
							l43.3,33.1C394.8,274.4,394.8,275.4,394,276z"/>
						<path class="st0" d="M381.4,267.8L381.4,267.8c0-0.9,1-1.6,2.2-1.6h12.7c1.1,0,2.2,0.8,2.2,1.6l0,0c0,0.9-1,1.6-2.2,1.6h-12.7
							C382.4,269.4,381.4,268.7,381.4,267.8z"/>
						<path class="st0" d="M383.3,266.3L383.3,266.3c-1.1,0-2.2,0.8-2.2,1.6v9.7c0,0.9,1,1.6,2.2,1.6l0,0c1.1,0,2.2-0.8,2.2-1.6
							v-9.7C385.5,267.1,384.5,266.3,383.3,266.3z"/>
						<path class="st0" d="M373.8,261.9L373.8,261.9c0-0.9,1-1.6,2.2-1.6h12.7c1.1,0,2.2,0.8,2.2,1.6l0,0c0,0.9-1,1.6-2.2,1.6H376
							C374.8,263.6,373.8,262.9,373.8,261.9z"/>
						<path class="st0" d="M375.8,260.5L375.8,260.5c-1.1,0-2.2,0.8-2.2,1.6v9.7c0,0.9,1,1.6,2.2,1.6l0,0c1.1,0,2.2-0.8,2.2-1.6
							v-9.7C377.9,261.2,376.9,260.5,375.8,260.5z"/>
						<path class="st0" d="M394,204.6L394,204.6c-0.8-0.6-2.3-0.6-3.1,0l-43.3,33.1c-0.8,0.6-0.8,1.7,0,2.4l0,0
							c0.8,0.6,2.3,0.6,3.1,0L394,207C394.8,206.4,394.8,205.3,394,204.6z"/>
						<path class="st0" d="M381.4,212.9L381.4,212.9c0,0.9,1,1.6,2.2,1.6h12.7c1.1,0,2.2-0.8,2.2-1.6l0,0c0-0.9-1-1.6-2.2-1.6h-12.7
							C382.4,211.3,381.4,212.1,381.4,212.9z"/>
						<path class="st0" d="M383.3,214.4L383.3,214.4c-1.1,0-2.2-0.8-2.2-1.6v-9.7c0-0.9,1-1.6,2.2-1.6l0,0c1.1,0,2.2,0.8,2.2,1.6
							v9.7C385.5,213.6,384.5,214.4,383.3,214.4z"/>
						<path class="st0" d="M373.8,218.7L373.8,218.7c0,0.9,1,1.6,2.2,1.6h12.7c1.1,0,2.2-0.8,2.2-1.6l0,0c0-0.9-1-1.6-2.2-1.6H376
							C374.8,217.1,373.8,217.9,373.8,218.7z"/>
						<path class="st0" d="M375.8,220.2L375.8,220.2c-1.1,0-2.2-0.8-2.2-1.6v-9.7c0-0.9,1-1.6,2.2-1.6l0,0c1.1,0,2.2,0.8,2.2,1.6
							v9.7C377.9,219.4,376.9,220.2,375.8,220.2z"/>
					</g>
				</g>
				<polygon class="st2" points="562.1,148.4 529.2,134.4 529.2,99.8 562.1,99.8 				"/>
				<rect x="521.5" y="93.9" class="st2" width="48.3" height="8.1"/>
				<polygon class="st1" points="89.6,148.4 122.6,134.4 122.6,99.8 89.6,99.8 				"/>
				<rect x="82.1" y="93.9" class="st1" width="48.3" height="8.1"/>
			</g>
		</g>
	</g>
	<text transform="matrix(1 0 0 1 747.8544 220.2233)" class="st2 st4 st5">CK</text>
	<text transform="matrix(1 0 0 1 747.8544 220.2233)" class="st6 st4 st5">CK</text>
	<text transform="matrix(1 0 0 1 987.4543 220.2233)" class="st1 st4 st5">Term</text>
	<text transform="matrix(1 0 0 1 987.4543 220.2233)" class="st6 st4 st5">Term</text>
	<text transform="matrix(1 0 0 1 585.1816 304.7425)" class="st7 st4 st8">  </text>
	<text transform="matrix(1 0 0 1 614.6816 304.7425)" class="st2 st4 st8">Klimatyzacja </text>
	<text transform="matrix(1 0 0 1 614.6816 304.7425)" class="st7 st4 st8">Klimatyzacja </text>
	<text transform="matrix(1 0 0 1 926.8816 304.7425)" class="st1 st4 st8">Pompy Ciepła</text>
	<text transform="matrix(1 0 0 1 926.8816 304.7425)" class="st7 st4 st8">Pompy Ciepła</text>
	<text transform="matrix(1 0 0 1 1256.7815 304.7425)" class="st7 st4 st8"> </text>
	<text transform="matrix(1 0 0 1 1271.4814 304.7425)" class="st3 st4 st8">Rekuperacja </text>
	<text transform="matrix(1 0 0 1 1271.4814 304.7425)" class="st7 st4 st8">Rekuperacja </text>
</g>
</svg>
