<?xml version="1.0" encoding="utf-8"?>
<!-- Generator: Adobe Illustrator 27.3.1, SVG Export Plug-In . SVG Version: 6.00 Build 0)  -->
<svg version="1.1" id="Warstwa_1" xmlns="http://www.w3.org/2000/svg" xmlns:xlink="http://www.w3.org/1999/xlink" x="0px" y="0px"
	 viewBox="0 0 1600.8 460.8" style="enable-background:new 0 0 1600.8 460.8;" xml:space="preserve">
<style type="text/css">
	.st0{fill:#FFFFFF;}
	.st1{fill:#DE0301;}
	.st2{fill:#2175A6;}
	.st3{fill:#3B3B3B;}
	.st4{fill:none;}
	.st5{enable-background:new    ;}
	.st6{fill:#2175A6;stroke:#000000;stroke-width:0.75;stroke-miterlimit:10;}
	.st7{font-family:'ArialMT';}
	.st8{font-size:170px;}
	.st9{letter-spacing:1;}
	.st10{fill:#DE0301;stroke:#000000;stroke-width:0.75;stroke-miterlimit:10;}
	.st11{font-size:53px;}
	.st12{fill:none;stroke:#000000;stroke-width:0.5;stroke-miterlimit:10;}
	.st13{fill:#2175A6;stroke:#000000;stroke-width:0.5;stroke-miterlimit:10;}
	.st14{fill:#DE0301;stroke:#000000;stroke-width:0.5;stroke-miterlimit:10;}
	.st15{fill:#3B3B3B;stroke:#000000;stroke-width:0.5;stroke-miterlimit:10;}
</style>
<g id="Layer_1">
	<g>
		<rect class="st0" width="1600.8" height="460.8"/>
	</g>
	<g>
		<g>
			<polygon class="st1" points="84.6,335.4 115.3,330.2 115.3,184.6 93.7,184.6 222.5,94.9 241,108.1 264.3,91.8 222.5,63.9 
				22.1,197.9 84.6,197.9 			"/>
			<polygon class="st2" points="438.1,63.9 396.3,91.8 419.6,108.1 438.1,94.9 566.9,184.6 545.3,184.6 545.3,340.9 576,347.3 
				576,197.9 638.5,197.9 			"/>
			<path class="st3" d="M506.6,341.9c-88.3-15.1-203.7-19.3-293.7-13.4c-52.3,3.7-105,10-155.3,22.9l0,0
				c-14.5,3.4-21.9,16.8-15.2,27.7c6,9.9,20.8,13.9,33.1,9.1c22.3-7.4,45.6-13,68.9-17.9c60.1-12.5,122.4-19.3,184.6-21.2
				c102.7-3,205.3,7.9,304,31l30.9,8.5C664,388.5,589.6,356.1,506.6,341.9z"/>
			<path class="st3" d="M192.5,321.8c10.7-0.9,21.3-1.7,32-2.4V184.6h-19.2l125-89.6l127.1,89.6h-19.9v137
				c10.3,0.8,20.5,1.6,30.5,2.7V197.9h62.5l-200.3-134L130,197.9h62.5V321.8z"/>
			<g>
				<path class="st1" d="M321.1,308.6c0,0-87.8,1.5-81.3-90.7c0,0,11.3,20,18.7,20.1c-3.9-0.1-1.4-18.4-1.1-19.8
					c5.3-19.2,28.1-31.3,43-46.2c15.8-15.6,32.1-35.3,35.5-55.4c3.4,16.4,14.3,38.2,19.6,50.7c9.6,22.9-3.5,57.7-15.3,79.6
					c-5.1,9.6-10.6,19-16.4,28.3c0,0-6.6,10.3-5.9,23.1c0,0-16.2-12.4-8.1-49.5c0,0,8.1-29.5,5-40.5c0,0-33.9,43.3-27.6,58.2
					c0,0-21.4-11.1-21.4-17.8C265.9,248.4,257.8,283.6,321.1,308.6z"/>
				<path class="st2" d="M339.7,265.3c0,0,37.3-63.1,22.3-99.1c0,0,77.8,47.1,52,108.2c0,0-24,42.7-84.4,34.2
					C329.8,308.6,321.1,287.8,339.7,265.3z"/>
				<path class="st0" d="M329.8,151.3c-5.3,13.9-16.2,26.4-27.7,37.9c-5,4.9-10.3,9.6-15.9,14.2c-7.5,5.8-13.1,12.4-13.6,20.8
					c-0.5,4.1-0.3,8.1-0.1,12.3c-1.2-4.1-2-8.1-2.3-12.4c-0.1-4.2,0.7-8.6,3.2-12.5c2.4-4.1,6-7.4,9.4-10.5
					c5.3-4.6,10.4-9.3,15.6-14.1C309.9,175.7,321.3,164.2,329.8,151.3L329.8,151.3z"/>
				<g>
					<path class="st0" d="M351.7,295L351.7,295c-1.1,0-2.2-0.8-2.2-1.6v-46.9c0-0.9,1-1.6,2.2-1.6l0,0c1.1,0,2.2,0.8,2.2,1.6v46.9
						C353.9,294.2,352.9,295,351.7,295z"/>
					<path class="st0" d="M350.5,282.3L350.5,282.3c0.8-0.6,2.3-0.6,3.1,0l9,6.9c0.8,0.6,0.8,1.7,0,2.4l0,0c-0.8,0.6-2.3,0.6-3.1,0
						l-9-6.9C349.7,283.9,349.7,282.9,350.5,282.3z"/>
					<path class="st0" d="M353.2,282.3L353.2,282.3c-0.8-0.6-2.3-0.6-3.1,0l-9,6.9c-0.8,0.6-0.8,1.7,0,2.4l0,0
						c0.8,0.6,2.3,0.6,3.1,0l9-6.9C354.1,283.9,354.1,282.9,353.2,282.3z"/>
					<path class="st0" d="M350.5,274L350.5,274c0.8-0.6,2.3-0.6,3.1,0l9,6.9c0.8,0.6,0.8,1.7,0,2.4l0,0c-0.8,0.6-2.3,0.6-3.1,0
						l-9-6.9C349.7,275.7,349.7,274.7,350.5,274z"/>
					<path class="st0" d="M353.2,274L353.2,274c-0.8-0.6-2.3-0.6-3.1,0l-9,6.9c-0.8,0.6-0.8,1.7,0,2.4l0,0c0.8,0.6,2.3,0.6,3.1,0
						l9-6.9C354.1,275.7,354.1,274.7,353.2,274z"/>
					<g>
						<path class="st0" d="M415.6,245.8L415.6,245.8c0,0.9-1,1.6-2.2,1.6h-61.3c-1.1,0-2.2-0.8-2.2-1.6l0,0c0-0.9,1-1.6,2.2-1.6
							h61.3C414.7,244.2,415.6,245,415.6,245.8z"/>
						<path class="st0" d="M399.1,246.8L399.1,246.8c-0.8-0.6-0.8-1.7,0-2.4l9-6.9c0.8-0.6,2.3-0.6,3.1,0l0,0c0.8,0.6,0.8,1.7,0,2.4
							l-9,6.9C401.4,247.5,400,247.5,399.1,246.8z"/>
						<path class="st0" d="M399.1,244.8L399.1,244.8c-0.8,0.6-0.8,1.7,0,2.4l9,6.9c0.8,0.6,2.3,0.6,3.1,0l0,0c0.8-0.6,0.8-1.7,0-2.4
							l-9-6.9C401.4,244.1,400,244.1,399.1,244.8z"/>
						<path class="st0" d="M388.4,246.8L388.4,246.8c-0.8-0.6-0.8-1.7,0-2.4l9-6.9c0.8-0.6,2.3-0.6,3.1,0l0,0c0.8,0.6,0.8,1.7,0,2.4
							l-9,6.9C390.5,247.5,389.2,247.5,388.4,246.8z"/>
						<path class="st0" d="M388.4,244.8L388.4,244.8c-0.8,0.6-0.8,1.7,0,2.4l9,6.9c0.8,0.6,2.3,0.6,3.1,0l0,0c0.8-0.6,0.8-1.7,0-2.4
							l-9-6.9C390.5,244.1,389.2,244.1,388.4,244.8z"/>
					</g>
					<path class="st0" d="M397.5,281L397.5,281c-0.8,0.6-2.3,0.6-3.1,0l-43.3-33.1c-0.8-0.6-0.8-1.7,0-2.4l0,0
						c0.8-0.6,2.3-0.6,3.1,0l43.3,33.1C398.3,279.4,398.3,280.4,397.5,281z"/>
					<path class="st0" d="M384.9,272.8L384.9,272.8c0-0.9,1-1.6,2.2-1.6h12.7c1.1,0,2.2,0.8,2.2,1.6l0,0c0,0.9-1,1.6-2.2,1.6h-12.7
						C385.9,274.4,384.9,273.7,384.9,272.8z"/>
					<path class="st0" d="M386.8,271.3L386.8,271.3c-1.1,0-2.2,0.8-2.2,1.6v9.7c0,0.9,1,1.6,2.2,1.6l0,0c1.1,0,2.2-0.8,2.2-1.6v-9.7
						C389,272.1,388,271.3,386.8,271.3z"/>
					<path class="st0" d="M377.3,266.9L377.3,266.9c0-0.9,1-1.6,2.2-1.6h12.7c1.1,0,2.2,0.8,2.2,1.6l0,0c0,0.9-1,1.6-2.2,1.6h-12.7
						C378.3,268.6,377.3,267.9,377.3,266.9z"/>
					<path class="st0" d="M379.3,265.5L379.3,265.5c-1.1,0-2.2,0.8-2.2,1.6v9.7c0,0.9,1,1.6,2.2,1.6l0,0c1.1,0,2.2-0.8,2.2-1.6v-9.7
						C381.4,266.2,380.4,265.5,379.3,265.5z"/>
					<path class="st0" d="M397.5,209.6L397.5,209.6c-0.8-0.6-2.3-0.6-3.1,0l-43.3,33.1c-0.8,0.6-0.8,1.7,0,2.4l0,0
						c0.8,0.6,2.3,0.6,3.1,0l43.3-33.1C398.3,211.4,398.3,210.3,397.5,209.6z"/>
					<path class="st0" d="M384.9,217.9L384.9,217.9c0,0.9,1,1.6,2.2,1.6h12.7c1.1,0,2.2-0.8,2.2-1.6l0,0c0-0.9-1-1.6-2.2-1.6h-12.7
						C385.9,216.3,384.9,217.1,384.9,217.9z"/>
					<path class="st0" d="M386.8,219.4L386.8,219.4c-1.1,0-2.2-0.8-2.2-1.6v-9.7c0-0.9,1-1.6,2.2-1.6l0,0c1.1,0,2.2,0.8,2.2,1.6v9.7
						C389,218.6,388,219.4,386.8,219.4z"/>
					<path class="st0" d="M377.3,223.7L377.3,223.7c0,0.9,1,1.6,2.2,1.6h12.7c1.1,0,2.2-0.8,2.2-1.6l0,0c0-0.9-1-1.6-2.2-1.6h-12.7
						C378.3,222.1,377.3,222.9,377.3,223.7z"/>
					<path class="st0" d="M379.3,225.2L379.3,225.2c-1.1,0-2.2-0.8-2.2-1.6v-9.7c0-0.9,1-1.6,2.2-1.6l0,0c1.1,0,2.2,0.8,2.2,1.6v9.7
						C381.4,224.4,380.4,225.2,379.3,225.2z"/>
				</g>
			</g>
			<polygon class="st2" points="565.6,153.4 532.7,139.4 532.7,104.8 565.6,104.8 			"/>
			<rect x="525" y="98.9" class="st2" width="48.3" height="8.1"/>
			<polygon class="st1" points="93.1,153.4 126.1,139.4 126.1,104.8 93.1,104.8 			"/>
			<rect x="85.6" y="98.9" class="st1" width="48.3" height="8.1"/>
		</g>
	</g>
</g>
<g id="Layer_2">
</g>
<polygon class="st4" points="1666.4,329.1 796.3,330.9 795.4,159 1665.6,157.1 "/>
<text transform="matrix(1 0 0 1 777.8 242.1786)" class="st5"><tspan x="0" y="0" class="st6 st7 st8 st9">CK</tspan><tspan x="239.6" y="0" class="st10 st7 st8 st9">Term</tspan></text>
<rect x="1207.4" y="298.2" class="st4" width="1.3" height="5.2"/>
<text transform="matrix(1 0 0 1 917.2061 330.8995)" class="st7 st11">  </text>
<text transform="matrix(1 0 0 1 606.4061 330.8995)" class="st5"><tspan x="0" y="0" class="st12 st7 st11">  </tspan><tspan x="29.5" y="0" class="st13 st7 st11">Klimatyzacja </tspan><tspan x="341.7" y="0" class="st14 st7 st11">Pompy Ciepła</tspan><tspan x="671.6" y="0" class="st12 st7 st11"> </tspan><tspan x="686.3" y="0" class="st15 st7 st11">Rekuperacja </tspan></text>
<text transform="matrix(1 0 0 1 1276.7061 330.8995)" class="st7 st11">  </text>
<text transform="matrix(1 0 0 1 1276.7061 330.8995)" class="st12 st7 st11"> </text>
</svg>
