<?xml version="1.0" encoding="utf-8"?>
<!-- Generator: Adobe Illustrator 27.3.1, SVG Export Plug-In . SVG Version: 6.00 Build 0)  -->
<svg version="1.1" id="Warstwa_1" xmlns="http://www.w3.org/2000/svg" xmlns:xlink="http://www.w3.org/1999/xlink" x="0px" y="0px"
	 viewBox="0 0 2099 2100" style="enable-background:new 0 0 2099 2100;" xml:space="preserve">
<style type="text/css">
	.st0{fill:#FFFFFF;}
	.st1{fill:#DE0301;}
	.st2{fill:#2175A6;}
	.st3{fill:#3B3B3B;}
	.st4{fill:none;}
	.st5{font-family:'MyriadPro-Regular';}
	.st6{font-size:120px;}
	.st7{font-size:60px;}
</style>
<g id="Layer_1">
	<g>
		<rect x="-0.5" class="st0" width="2100" height="2100"/>
	</g>
	<g>
		<g>
			<polygon class="st1" points="629.1,1100.4 678.8,1089.1 678.8,779.6 643.7,779.6 853.3,588.9 883.3,617 921.4,582.4 853.3,522.9 
				527.4,807.8 629.1,807.8 			"/>
			<polygon class="st2" points="1204.1,522.9 1136,582.4 1174.1,617 1204.1,588.9 1413.7,779.6 1378.6,779.6 1378.6,1112 
				1428.3,1125.6 1428.3,807.8 1530,807.8 			"/>
			<path class="st3" d="M1315.5,1114.1c-143.6-32.1-331.3-41-477.8-28.5c-85.1,7.8-170.9,21.3-252.7,48.6l0,0
				c-23.6,7.3-35.6,35.9-24.6,59c9.8,21,33.9,29.7,53.9,19.4c36.3-15.9,74.1-27.6,112.2-38.2c97.9-26.6,199.2-41,300.4-45.1
				c167-6.4,334,16.8,494.5,65.9l50.3,18.1C1571.6,1213.4,1450.6,1144.3,1315.5,1114.1z"/>
			<path class="st3" d="M804.5,1071.4c17.3-1.9,34.7-3.6,52-5V779.6h-31.2l203.4-190.7l206.9,190.7h-32.4V1071
				c16.8,1.7,33.4,3.5,49.7,5.6V807.8h101.7l-325.9-284.9L702.8,807.8h101.7V1071.4z"/>
			<g>
				<path class="st1" d="M1013.7,1043.3c0,0-142.9,3.1-132.3-193c0,0,18.3,42.5,30.5,42.7c-6.4-0.1-2.4-39.2-1.8-42.1
					c8.7-40.8,45.6-66.7,70-98.3c25.7-33.2,52.2-75.2,57.9-117.9c5.5,34.8,23.3,81.1,31.8,107.8c15.6,48.6-5.7,122.6-24.9,169.4
					c-8.4,20.3-17.2,40.5-26.7,60.1c0,0-10.7,22-9.7,49.2c0,0-26.3-26.4-13.2-105.4c0,0,13.2-62.8,8.1-86.1
					c0,0-55.1,92.1-44.9,123.8c0,0-34.8-23.6-34.8-37.8C923.9,915.4,910.7,990.1,1013.7,1043.3z"/>
				<path class="st2" d="M1044.1,951.4c0,0,60.7-134.2,36.4-210.8c0,0,126.5,100.1,84.7,230.1c0,0-39,90.9-137.3,72.7
					C1027.9,1043.3,1013.7,999,1044.1,951.4z"/>
				<path class="st0" d="M1027.9,708.9c-8.6,29.7-26.3,56.2-45,80.6c-8.2,10.4-16.9,20.5-25.9,30.1c-12.2,12.4-21.4,26.4-22.2,44.2
					c-0.8,8.6-0.5,17.3-0.1,26.1c-2-8.6-3.4-17.3-3.6-26.3c-0.2-8.9,1.1-18.3,5.1-26.7c3.8-8.6,9.8-15.6,15.4-22.3
					c8.6-9.9,17-19.9,25.3-30C995.6,760.7,1014.1,736.1,1027.9,708.9L1027.9,708.9z"/>
				<g>
					<path class="st0" d="M1063.6,1014.3L1063.6,1014.3c-1.9,0-3.5-1.6-3.5-3.5V911c0-1.9,1.6-3.5,3.5-3.5l0,0
						c1.9,0,3.5,1.6,3.5,3.5v99.7C1067.1,1012.7,1065.5,1014.3,1063.6,1014.3z"/>
					<path class="st0" d="M1061.6,987.3L1061.6,987.3c1.4-1.4,3.6-1.4,5,0l14.6,14.6c1.4,1.4,1.4,3.6,0,5l0,0c-1.4,1.4-3.6,1.4-5,0
						l-14.6-14.6C1060.2,990.9,1060.2,988.7,1061.6,987.3z"/>
					<path class="st0" d="M1066,987.3L1066,987.3c-1.4-1.4-3.6-1.4-5,0l-14.6,14.6c-1.4,1.4-1.4,3.6,0,5l0,0c1.4,1.4,3.6,1.4,5,0
						l14.6-14.6C1067.3,990.9,1067.3,988.7,1066,987.3z"/>
					<path class="st0" d="M1061.6,969.8L1061.6,969.8c1.4-1.4,3.6-1.4,5,0l14.6,14.6c1.4,1.4,1.4,3.6,0,5l0,0c-1.4,1.4-3.6,1.4-5,0
						l-14.6-14.6C1060.2,973.4,1060.2,971.2,1061.6,969.8z"/>
					<path class="st0" d="M1066,969.8L1066,969.8c-1.4-1.4-3.6-1.4-5,0l-14.6,14.6c-1.4,1.4-1.4,3.6,0,5l0,0c1.4,1.4,3.6,1.4,5,0
						l14.6-14.6C1067.3,973.4,1067.3,971.2,1066,969.8z"/>
					<g>
						<path class="st0" d="M1167.6,909.9L1167.6,909.9c0,1.9-1.6,3.5-3.5,3.5h-99.7c-1.9,0-3.5-1.6-3.5-3.5l0,0
							c0-1.9,1.6-3.5,3.5-3.5h99.7C1166,906.4,1167.6,908,1167.6,909.9z"/>
						<path class="st0" d="M1140.7,911.9L1140.7,911.9c-1.4-1.4-1.4-3.6,0-5l14.6-14.6c1.4-1.4,3.6-1.4,5,0l0,0c1.4,1.4,1.4,3.6,0,5
							l-14.6,14.6C1144.3,913.3,1142.1,913.3,1140.7,911.9z"/>
						<path class="st0" d="M1140.7,907.6L1140.7,907.6c-1.4,1.4-1.4,3.6,0,5l14.6,14.6c1.4,1.4,3.6,1.4,5,0l0,0c1.4-1.4,1.4-3.6,0-5
							l-14.6-14.6C1144.3,906.2,1142.1,906.2,1140.7,907.6z"/>
						<path class="st0" d="M1123.2,911.9L1123.2,911.9c-1.4-1.4-1.4-3.6,0-5l14.6-14.6c1.4-1.4,3.6-1.4,5,0l0,0c1.4,1.4,1.4,3.6,0,5
							l-14.6,14.6C1126.7,913.3,1124.5,913.3,1123.2,911.9z"/>
						<path class="st0" d="M1123.2,907.6L1123.2,907.6c-1.4,1.4-1.4,3.6,0,5l14.6,14.6c1.4,1.4,3.6,1.4,5,0l0,0c1.4-1.4,1.4-3.6,0-5
							l-14.6-14.6C1126.7,906.2,1124.5,906.2,1123.2,907.6z"/>
					</g>
					<path class="st0" d="M1138,984.7L1138,984.7c-1.4,1.4-3.6,1.4-5,0l-70.5-70.5c-1.4-1.4-1.4-3.6,0-5l0,0c1.4-1.4,3.6-1.4,5,0
						l70.5,70.5C1139.4,981.1,1139.4,983.4,1138,984.7z"/>
					<path class="st0" d="M1117.6,967.1L1117.6,967.1c0-1.9,1.6-3.5,3.5-3.5h20.7c1.9,0,3.5,1.6,3.5,3.5l0,0c0,1.9-1.6,3.5-3.5,3.5
						h-20.7C1119.2,970.6,1117.6,969,1117.6,967.1z"/>
					<path class="st0" d="M1120.7,964L1120.7,964c-1.9,0-3.5,1.6-3.5,3.5v20.7c0,1.9,1.6,3.5,3.5,3.5l0,0c1.9,0,3.5-1.6,3.5-3.5
						v-20.7C1124.2,965.6,1122.6,964,1120.7,964z"/>
					<path class="st0" d="M1105.2,954.7L1105.2,954.7c0-1.9,1.6-3.5,3.5-3.5h20.7c1.9,0,3.5,1.6,3.5,3.5l0,0c0,1.9-1.6,3.5-3.5,3.5
						h-20.7C1106.8,958.2,1105.2,956.6,1105.2,954.7z"/>
					<path class="st0" d="M1108.3,951.6L1108.3,951.6c-1.9,0-3.5,1.6-3.5,3.5v20.7c0,1.9,1.6,3.5,3.5,3.5l0,0c1.9,0,3.5-1.6,3.5-3.5
						v-20.7C1111.8,953.2,1110.2,951.6,1108.3,951.6z"/>
					<path class="st0" d="M1138,832.9L1138,832.9c-1.4-1.4-3.6-1.4-5,0l-70.5,70.5c-1.4,1.4-1.4,3.6,0,5l0,0c1.4,1.4,3.6,1.4,5,0
						l70.5-70.5C1139.4,836.5,1139.4,834.2,1138,832.9z"/>
					<path class="st0" d="M1117.6,850.5L1117.6,850.5c0,1.9,1.6,3.5,3.5,3.5h20.7c1.9,0,3.5-1.6,3.5-3.5l0,0c0-1.9-1.6-3.5-3.5-3.5
						h-20.7C1119.2,847,1117.6,848.6,1117.6,850.5z"/>
					<path class="st0" d="M1120.7,853.6L1120.7,853.6c-1.9,0-3.5-1.6-3.5-3.5v-20.7c0-1.9,1.6-3.5,3.5-3.5l0,0
						c1.9,0,3.5,1.6,3.5,3.5v20.7C1124.2,852,1122.6,853.6,1120.7,853.6z"/>
					<path class="st0" d="M1105.2,862.9L1105.2,862.9c0,1.9,1.6,3.5,3.5,3.5h20.7c1.9,0,3.5-1.6,3.5-3.5l0,0c0-1.9-1.6-3.5-3.5-3.5
						h-20.7C1106.8,859.4,1105.2,861,1105.2,862.9z"/>
					<path class="st0" d="M1108.3,866L1108.3,866c-1.9,0-3.5-1.6-3.5-3.5v-20.7c0-1.9,1.6-3.5,3.5-3.5l0,0c1.9,0,3.5,1.6,3.5,3.5
						v20.7C1111.8,864.4,1110.2,866,1108.3,866z"/>
				</g>
			</g>
			<polygon class="st2" points="1411.6,713.2 1358,683.5 1358,609.8 1411.6,609.8 			"/>
			<rect x="1345.5" y="597.3" class="st2" width="78.5" height="17.2"/>
			<polygon class="st1" points="642.9,713.2 696.5,683.5 696.5,609.8 642.9,609.8 			"/>
			<rect x="630.5" y="597.4" class="st1" width="78.5" height="17.2"/>
		</g>
		<rect x="537" y="1258.6" class="st4" width="1048.8" height="182.4"/>
		<text transform="matrix(1 0 0 1 788.0342 1343.7979)"><tspan x="0" y="0" class="st5 st6">CEKATERM</tspan><tspan x="-249.3" y="72" class="st5 st7">Klimatyzacja | Pompy Ciepła | Rekuperacja</tspan></text>
	</g>
</g>
<g id="Layer_2">
</g>
</svg>
