<?xml version="1.0" encoding="utf-8"?>
<!-- Generator: Adobe Illustrator 27.3.1, SVG Export Plug-In . SVG Version: 6.00 Build 0)  -->
<svg version="1.1" id="Warstwa_2_00000054962239594882361620000015535010518480998790_"
	 xmlns="http://www.w3.org/2000/svg" xmlns:xlink="http://www.w3.org/1999/xlink" x="0px" y="0px" viewBox="0 0 680 828.2"
	 style="enable-background:new 0 0 680 828.2;" xml:space="preserve">
<style type="text/css">
	.st0{fill:#F9A825;}
	.st1{fill:#42A5F5;}
	.st2{fill:#1976D2;}
	.st3{fill:#D32F2F;}
	.st4{fill:#E65100;}
	.st5{fill-rule:evenodd;clip-rule:evenodd;fill:#1976D2;}
	.st6{fill-rule:evenodd;clip-rule:evenodd;fill:#D32F2F;}
	.st7{font-family:'MyriadPro-Regular';}
	.st8{font-size:34.4751px;}
	.st9{letter-spacing:-1;}
	.st10{fill:#0288D1;}
	.st11{font-size:118.2003px;}
	.st12{letter-spacing:-8.9;}
</style>
<g id="Layer_1">
	<g>
		<g>
			<path class="st0" d="M330.4,39.9l1.6-28.9c-30,0.8-58.9,6-86,14.9l11.5,26.7C280.5,45.2,305,40.8,330.4,39.9L330.4,39.9z"/>
			<path class="st1" d="M239,59.1l-8.6-27.7c-27.4,10.7-52.9,25.3-75.6,43.1l20.1,21.1C194.3,80.7,215.9,68.4,239,59.1L239,59.1z"/>
			<path class="st1" d="M159.9,108.1l-17.7-23.1c-21.8,19.1-40.8,41.3-56.2,65.9l26.2,13.1C125.5,143.2,141.5,124.4,159.9,108.1z"/>
			<path class="st2" d="M102.4,180.7l-24.6-15.8c-13.8,25-23.9,52.1-29.9,80.8l29.2,3.5C82.4,225,91,201.9,102.4,180.7L102.4,180.7z
				"/>
			<path class="st3" d="M635.3,261.7l-28.7,6.6c1.7,11.9,2.5,24.1,2.5,36.5c0,12.4-0.9,24.5-2.5,36.5l24.3,21.6
				c5.6-16.1,7.5-43.4,7.5-58S637.4,275.7,635.3,261.7L635.3,261.7z"/>
			<path class="st3" d="M603.3,249.2l29.2-3.5c-5.9-28.7-16.1-55.8-29.9-80.8L578,180.7C589.4,202,598,225,603.3,249.2L603.3,249.2z
				"/>
			<path class="st0" d="M422.9,52.5l11.5-26.7c-27.1-8.9-56-14.1-86-14.9l1.6,28.9C375.4,40.8,399.8,45.2,422.9,52.5L422.9,52.5z"/>
			<path class="st4" d="M505.5,95.6l20.1-21.1c-22.7-17.8-48.2-32.4-75.6-43.1l-8.6,27.7C464.5,68.4,486.1,80.7,505.5,95.6
				L505.5,95.6z"/>
			<path class="st4" d="M568.1,163.9l26.2-13.1c-15.4-24.6-34.3-46.8-56.2-65.9l-17.7,23.1C538.9,124.4,554.9,143.2,568.1,163.9
				L568.1,163.9z"/>
			<path class="st2" d="M153.3,526.2c-1.6-3.6-3-9.7-3.9-23.2c-0.8-11.9-0.9-26.4-0.4-41.1c0.1-2.3,0.2-4.9,0.4-7.7
				c-2.1,0.7-4.4,1.2-6.8,1.2c-11.3,0-20.5-9.1-20.5-20.2s9.2-20.2,20.5-20.2c3.7,0,7.2,1,10.2,2.7c0.9-6.3,1.9-12.7,3.1-19.3
				c-1.2-0.4-2.4-0.8-3.7-1.1v-35.6l16.2-14.2c0.2-3.7,1.5-7.1,3.9-10c4.6-5.4,9.4-9,13.2-11.4c-0.3-1.5-1.1-3-2.2-4.3
				c-3.5-3.9-9.6-4.2-13.5-0.8l-17.5,15.4v-21.6c0-5.2-4.3-9.4-9.6-9.4s-9.6,4.2-9.6,9.4v21.6L115.5,321c-3.9-3.5-10-3.1-13.5,0.8
				c-3.5,3.9-3.2,9.9,0.8,13.3l30.3,26.7v35.6c-7.3,1.8-13.9,5.6-18.9,10.8l-31.8-18.1l-8.2-38.7c-1.1-5.1-6.2-8.4-11.3-7.3
				c-5.2,1.1-8.5,6.1-7.4,11.2l4.7,22.2l-18.6-10.5c-4.6-2.6-10.5-1.1-13.1,3.5c-2.6,4.5-1.1,10.3,3.5,12.9L51,394.1l-22.8,7.4
				c-5,1.6-7.8,7-6.1,11.9c1.3,4,5.1,6.5,9.1,6.5c1,0,2-0.2,3-0.5l39-12.7l31.2,17.8c-1,3.4-1.5,7-1.5,10.8c0,3.7,0.5,7.4,1.5,10.8
				l-32.1,18.3L34.2,452c-5-1.6-10.5,1.1-12.1,6s1.1,10.3,6.1,11.9l21.9,7.1l-18.2,10.4c-4.6,2.6-6.2,8.4-3.5,12.9
				c1.8,3,5,4.7,8.3,4.7c1.6,0,3.3-0.4,4.8-1.3l18.8-10.7l-4.9,23.1c-1.1,5.1,2.2,10.1,7.4,11.2c0.7,0.1,1.3,0.2,2,0.2
				c4.4,0,8.4-3.1,9.4-7.5l8.4-39.6l31.6-18c5.1,5.2,11.6,9,18.9,10.8v36.4l-30.3,26.7c-3.9,3.5-4.3,9.4-0.8,13.3
				c3.5,3.9,9.6,4.2,13.5,0.8l17.5-15.4v20.8c0,5.2,4.3,9.4,9.6,9.4s9.6-4.2,9.6-9.4v-20.8l2.1,1.9
				C153.7,533.5,153.4,530,153.3,526.2L153.3,526.2z"/>
			<path class="st3" d="M568.9,345.2c0,0,24-8,22.8-28.8c-1.5-26-32.1-29.2-32.1-29.2S581.8,316,568.9,345.2L568.9,345.2z
				 M646.2,451.1c-18.6,42.3-53.2,9.7-33.1-16.1c14.4-18.4,20.7-56.9-24.1-83.3c7.2,16.6-5.3,39.3-21.9,39.3
				c-12.6,0-21.8-16.3-21.7-29.9c0.2-19.9,13.7-36.2,13.7-36.2s-28.3,8.6-44,34.8c13,36,16.3,79.5,17.2,102.3
				c0.5,14.6,0.4,29.2-0.4,41.1c-0.9,13.4-2.3,19.6-3.9,23.2c-0.1,9.5-2.2,18.2-5.9,25.5c11.3,5.1,23.8,7.9,37,7.9
				c49.2,0,89-39.3,89-87.7C648.1,464.9,647.4,457.9,646.2,451.1L646.2,451.1z"/>
			<g>
				<path class="st5" d="M142.7,234.7c-0.6-0.1-1.2-0.3-1.7-0.6c-8.1-4.7-32.2-18.7-32.2-18.7l0,0c-2.1,4-3.7,8.6-1.2,12.4
					c3.9,6,11.5,19.9,22,29L142.7,234.7L142.7,234.7z M210.1,267.6c1.4-1.4,3.3-2.1,5.2-2.1s3.9,0.8,5.2,2.1l28.7,28.3
					c2.3-0.5,4.7-1,6.9-1.3c-12.7-12.4-26.1-25.5-40.5-39.7c-9.8-9.6-17.3-45.6-24.8-60c-7.1-13.7-34.8-18-48.8-18.3
					c-10.4-0.2-13.7,8.1-13.7,8.1s23.7,12.5,31.3,16.5c1.5,0.8,2.5,2.4,2.6,4.1c0.1,5.7-1.4,10.6-3.6,14.8l-30,50.8
					c0,0,1.8,2.8,6.8,2.7c5.6-0.1,46.7-3.8,63.8,13.1c8.1,8,15.9,15.7,23.4,23.1l8.3-2.8l2.3-7l6.1-1.6c1.1-0.3,2.5-0.7,4.2-1
					l-22.7-22.3c-1.4-1.4-3.3-2.1-5.2-2.1c-2,0-3.9,0.8-5.2,2.1l-3,3c-0.5,0.5-0.9,1.1-1.3,1.7c-0.7-1.1-1.1-2.5-1.1-3.8
					c0-1.9,0.8-3.8,2.2-5.2L210.1,267.6L210.1,267.6z M172.1,261.9c-0.6,1-1.8,1.3-2.8,0.8l-14.1-7.8c-1-0.6-1.4-1.8-0.8-2.8
					l1.3-2.3l17.7,9.9L172.1,261.9L172.1,261.9z M175.8,255.4l-17.7-9.9l2.7-4.7l17.7,9.9L175.8,255.4z M180.9,246.4l-17.7-9.9
					l2.7-4.7l17.7,9.9L180.9,246.4z M187.5,234.8l-1.5,2.6l-17.7-9.9l1.4-2.5c0.6-1,1.8-1.3,2.8-0.8l14.1,7.8
					C187.7,232.5,188.1,233.8,187.5,234.8L187.5,234.8z"/>
				<path class="st6" d="M519.2,205.3c0-1.7,1-3.3,2.6-4.1c7.6-4.1,31.3-16.5,31.3-16.5s-3.3-8.3-13.7-8.1
					c-14,0.3-41.6,4.7-48.8,18.3c-7.5,14.4-15,50.4-24.8,60c-14.3,14.1-27.8,27.3-40.5,39.7c2.2,0.3,4.6,0.8,6.9,1.3l28.7-28.3
					c1.4-1.4,3.3-2.1,5.2-2.1c2,0,3.9,0.8,5.2,2.1l3,3c1.4,1.4,2.2,3.2,2.2,5.2c0,1.4-0.4,2.7-1.1,3.8c-0.3-0.6-0.8-1.2-1.3-1.7
					l-3-3c-1.4-1.4-3.3-2.1-5.2-2.1s-3.9,0.8-5.2,2.1L438,297.2c1.6,0.4,3.1,0.8,4.2,1.1l6.1,1.6l2.3,7.1l8.2,2.8
					c7.5-7.4,15.2-15.1,23.4-23.1c17.1-16.9,58.2-13.2,63.8-13.1c5,0.1,6.8-2.7,6.8-2.7l-30-50.8C520.6,215.9,519.1,211,519.2,205.3
					L519.2,205.3z M493.8,234.8c-0.6-1-0.2-2.2,0.8-2.8l14.1-7.8c1-0.6,2.3-0.2,2.8,0.8l1.4,2.5l-17.7,9.9L493.8,234.8L493.8,234.8z
					 M497.8,241.7l17.7-9.9l2.7,4.7l-17.7,9.9L497.8,241.7L497.8,241.7z M527,252.1c0.6,1,0.2,2.2-0.8,2.8l-14.1,7.8
					c-1,0.6-2.3,0.2-2.8-0.8l-1.2-2.2l17.7-9.9L527,252.1L527,252.1z M505.6,255.4l-2.7-4.7l17.7-9.9l2.7,4.7L505.6,255.4
					L505.6,255.4z M572.6,215.4L572.6,215.4c0,0-24.1,14-32.2,18.7c-0.5,0.3-1.1,0.5-1.7,0.6l13.1,22.2c10.6-9.1,18.1-23,22-29
					C576.2,224,574.7,219.4,572.6,215.4L572.6,215.4z"/>
				<g>
					<path class="st5" d="M314.2,514.7c-26.5,9.3-74,25.1-91.6,25.9c0,0,19.7-39.4,27.8-47.9l-8.7,31.4c0,0,20.3-30.8,24.9-41.1
						c0,0,10.6,0,18.5,0.3c-3.7-5.9-7.8-11.2-10.6-14.5c-9.5-0.4-19.9-0.4-24.3,1.3c-8.7,3.4-5.2-13.1-4.1-24.5
						c0.8-7.7,14.5-17.7,24.9-18.8c5.2-0.6,35,4.9,66,12.2c11.5-8.3,28.1-19.4,43.5-27.5c-13.8,0.3-27.6,0.5-32,0.5
						c-23.8-0.5-58.3-2.1-58.3-2.1s28.1-3.9,50.7-6.7c-0.6-10.9-3-61.5,4.5-83.3l10.4-4.3c4.4-7,9.8-15.7,15.7-25.5
						c0,0-12.6,14.3-26.1,18.8c0-2,0-3.6,0.2-4.4c0.6-3.4,5.5-8.3,4.9-13.4c0-0.3-0.1-0.7-0.1-1c-2.5-0.8-6.4-2.4-8.9-5.4
						c-3.4-4-3.9-11.6-2.8-17c-15,4.7-19.4-5.8-15.4-10c4.1-4.4,22.9-2.9,22.9-2.9c0.8-4.1-2.7-8.6-6.8-8.9
						c-4.1-0.3-12.6,4.5-11.3-0.1s9-3,12.3-3s6.4-0.2,13-0.3c2.7,0,7.1-0.5,9.5-1.3c1.4,2.4,1.7,3.9,1.8,3.2c1.3-3,1.5-5,0.8-6.2
						c-1.4-2.7-5-3.2-5.6-2.9c-0.7,0.3-0.3,1.2-0.3,1.2c-1.4,0-3.2-0.5-5.8-0.6c-3.2-0.1-7.4-1-9.5-1c-0.9,0-2.4-1.5-4-1.6
						c-1.8,0-3.8,1.3-4.6,1.5c-13.9,2.9-7.8-6.3,2.3-6.7c4.8-0.2,2.3-3.6,7.6-2.7c5.3,0.9,9.1-4.4,5.3-5.8c-3.8-1.4-6.1,3.3-9.7,3.2
						c-3.6-0.1-2.9-1.6-5.7-3.1c-3.2-1.8-6.2-1.1-6.2-1.1c-0.3-6,8.5-7.9,10-11.5s1.8-16.9,1.3-20.7s-7.3-5.9-7.3-5.9
						c-4.3-5.6-23.2-4.2-31-4.6c1.6-1.9,3.3-3.7,5.1-5.4c7.3-7.1,17.4-10.8,27.8-11.8l-1-56.8c0,0-8.7-3.6-3.9-10.8
						c-9.4,1-22.6,3.3-29.2,8.5c-3,2.4-6.1,5.2-9.1,8.3c-2.6,2.8-4.3,6.3-4.9,9.9c-2.2,13.9-2.8,32.2-3.9,43.6
						c-0.6,6.6-2.3,11-2.3,11s-2-23.5,0-43.6c0.3-2.8,0.4-4.7,0.5-6.1c-3.3,6.1-5.7,12.9-6.5,20.2c-0.2,2.4-0.7,23.8-0.9,37.4
						c0.2,0.2,0.5,0.4,0.8,0.6c2.2,0.9,4.3-0.9,5.9-2c6.1-4.3,10.1-10.9,15.4-16c7.6-7.4,17.3-12.5,27.8-15
						c-6.2,3-12.1,7.1-17.3,10.9c-7.7,5.5-12.6,16.5-19.8,22.5c-3.7,3.1-8.9,6.3-13.9,4.7c-0.2-0.1-0.5-0.2-0.7-0.3
						c-1.8-0.8-3.8-0.8-5.5-0.2c-1.8,0.7-3.2,2-3.9,3.8l0,0c-3.5,8.4,0.3,18.3,6.6,25.4c2,2.3,4.7,4.9,7.9,5.7
						c0.2-9.3,1.3-15.4,1.3-15.4c0.3,4.8,1.3,10.9,2.1,15.5h0c0,0.2,0.1,0.4,0.1,0.6c0.7,3.6,1.2,6.2,1.2,6.2s0,0.1,0,0.4
						c2,9.9,5.3,18.9,11,26.6c0.3,0.3,0.5,0.7,0.8,1c-0.5,4.7-1.2,11.2-1.7,17l-1.1-0.2c0,0-4.2,1.8-6.2,6c-2.3,4.8-6.1,10.7-9.7,16
						c-2.9,4.3-4.4,6.1-5.3,6.9c0.4,1.1,0.8,2.8,1.1,5.1c2.6,19.1-3.9,45.3-3.9,45.3c0.4-9.1-3.1-44.1-3.1-44.1s0.2-0.7,0.5-1.6
						c-0.2,0.3-0.4,0.6-0.6,0.9c-0.4-0.6-1.2-1-2.4-1c-4.6,0-19.3,3.8-19.3,3.8l-2.1,6.6l-23.9,8c0,0-13.8,10.1-17.3,11.8
						c-2.5,1.3-8.9,4.3-15,11.5c-2,2.4,3.6,7.2,3,8.5c-1.1,2.5-5.4,6.2-6.4,8.9c-23,63.6-17.2,161.8-12,156.9
						c-1.3,20.2,7.5,39.2,30.2,38.6l38.8,0.8l42.6-4.4l60.7-18.4l44.6,13.5C368.6,542.1,334.4,523.5,314.2,514.7L314.2,514.7z
						 M326.5,351.7c-3.1-5.7-10.8-13.3-10.8-13.3l7.3,2.7l9.3,2.3l2.7,39.9C335,383.3,329.6,357.4,326.5,351.7L326.5,351.7z
						 M312.9,196.9c2.1-0.3,9.3,0,10.8,2.9c1.5,2.9-5.3,15.8-9.1,15.7c-3.3-0.1-6.8-5.3-10-9.6C301.4,201.4,302.3,198.6,312.9,196.9
						L312.9,196.9z M304.5,296.6c0,0,8.5,13.3,10,14.4c5.6,4.2,20.5,23.4,20.5,23.4l-27.6-17.1l-10.1,10.9c-1-2.5,5.7-10.1,4.5-15.4
						c-3-13.1-11.4-32-11.4-32C299.7,280.3,304.5,296.6,304.5,296.6L304.5,296.6z M186.2,430.3l41.7-1.5
						c-13.1-7.6-39.4-12.2-39.4-12.2s9.3-6.1,7.7-16c-1.5-9.9,7.3-28.5,7.3-28.5c11.6,7.6,26.3,16.4,28.6,26.2
						c2.3,9.9,3.5,41.8,3.5,41.8l-50.2,1.5L186.2,430.3L186.2,430.3z M186.7,491.3c-1.9-2.3,0.4-12.2-1.2-16.4
						c-1.5-4.2,1.5-5.7,4.2-7.2c2.7-1.5-3.5-7.6-3.5-7.6l0.4-7.6l22,0.8l22.8-2.3c-14.3,7.6-21.2,18.3-21.2,18.3
						c12-5.7,24.3-9.1,24.3-9.1l0.8,8.4C208,475.7,188.7,493.6,186.7,491.3L186.7,491.3z"/>
					<path class="st6" d="M419.3,191.5C419.3,191.5,419.3,191.5,419.3,191.5c-0.6-2.2-2.1-4-4.1-5.1c-2.1-1.1-4.5-1.3-6.7-0.5
						c-2.7,0.9-6,0.4-8.6-0.9c-8.6-4.3-14-16.7-20.5-23.2c-5.1-5-11.1-9.6-17.8-13c6.4,2,12.5,4.9,17.7,8.9c8.3,6.3,13.3,16,22,21.6
						c0.3,0.2,0.6,0.4,0.9,0.5c0.3,0.1,0.5,0.3,0.8,0.4c0.2,0.1,0.4,0.2,0.6,0.3c0.2,0.1,0.3,0.1,0.5,0.2c0.1,0,0.3,0.1,0.4,0.1
						c1,0.2,2,0,2.8-0.7c-0.2-13.6-0.7-34.9-0.9-37.3c-0.8-7.2-3.1-14-6.5-20.2c0.1,1.5,0.3,3.3,0.5,6.1c1.9,20.1,0,43.6,0,43.6
						s-1.8-6.4-2.7-15.4c-1.1-11.4-1.6-27-3.5-39.2c-0.6-3.7-2.3-7.1-4.9-9.9c-2.9-3.2-6-6-9-8.3c-7.2-5.7-22.7-7.9-32-8.7
						c-1.6-1.4-4.3-2.4-7.5-2.4s-5.9,0.9-7.5,2.4c0,0-2.7,6.1,5.8,7.8l2,46.9c0,0,9.8,0.2,14.9,2.7c0,0-12.6,1.9-17.8,10.3
						c1.4-0.1,1.1-0.2,2.5-0.2c10.3,0,20.8,2.7,29,8.5c3.3,2.3,6.1,5.5,8.8,8.8c-2.6,0-7.2,0-12.2,0.4c-6.7,0.4-13.9,10.2-13.9,10.2
						c3.3,0.5,6.7,10.2,15.8,10c9.1-0.7,10.1-6.2,17.2-8.2c-2.7-5.5-9.1-7.2-9.1-7.2s3.1-0.1,6.5,0.1c2,2.5,4.2,4.9,6.6,6.9
						c1.3,1.1,1.3,16.7,0.8,24.8l-0.2,8.6c-0.6,4.2-2,8.9-3.1,13c-1,3.9-9.1,12.2-11.1,15.7c-5.6,9.6-4.3,9.6-12.8,17.4
						c-14.4,4.2-22.2-0.2-22.2-0.2s1.5,13,9,15.8c1.5-0.1,2.9-0.2,4.4-0.4c3.7-0.4,7.5-0.9,10.2-3c10.9-8.2,20.6-19,28-30.9
						c5.2-8.3,6.9-18.3,8.4-28.1c2.2,0.5,4.4-0.4,6.3-1.5C415.1,213.8,422,201.8,419.3,191.5L419.3,191.5z M350.5,100L350.5,100
						c0.3,0,17.3,0.9,23.2,5.9c4.7,4,12.9,10.2,13.5,21c0.4,7.7,1.1,11.7,1.3,16.4c0,0.6-0.4,1.2-1,1.4c-0.6,0.2-1.3,0-1.7-0.5
						c-1.6-2.3-3.5-3.4-3.9-13.4c-0.3-7.7-3.6-13.8-8.5-19.2C366.3,104,350.3,100,350.5,100z"/>
					<path class="st6" d="M501,364.4c-1-2.7-5.3-6.4-6.4-8.9c-0.6-1.4,5-6.1,3-8.5c-6.1-7.1-12.5-10.2-15-11.5
						c-3.5-1.8-17.3-11.8-17.3-11.8l-16.9-5.7c0.3,8.5,0.5,21.2,0.1,31c-0.6,16.1-5.3,44.9-5.3,44.9c0.4-8.2-1.5-67-1.9-78.6l-2-6.2
						c0,0-14.7-3.8-19.3-3.8c-1.2,0-2,0.4-2.4,1.1c-0.8-1.3-2-3-3.2-4c-2.3-2-1.4,1.5-8.1-8.4c-3.6-5.3-7.4-11.3-9.7-16
						c-2-4.1-6.2-6-6.2-6l-1.8,0.1c-1.1-2.8-2.7-5.3-4.5-7.4c0.1,4.5,0.3,9.5,0.3,12.4c0,0-16.1,35-34.3,47.3c0,0-7.6,57.1-4.6,78.2
						l0-0.8c0.9-4.9,8.5-42,22.8-58c-3,11.3-8.1,32.4-7.5,45.6c0,0,10.7-28.6,22.4-43.9c10,3.9,20.8,10.6,22.9,11.6
						c4.8,2.2,9.3,1.7,9.3,1.7l-0.5,13.1l-2.9,3.8l-0.3,11l2.9,4.2l-1.1,19.8c0,0-2.7,0.1-6.9,0.2l-4.9,13.8l-15.8-1.3
						c0,0-25.6,7.2-45.3,16.5c29.4,7.1,59,15.7,68.7,22.2c0,0,0.7,8.5,7,25c1.6,4.2,1.9,6,3.3,9.7c-20.7-6.3-52-18.6-52-18.6
						s22.8,14.5,48.4,29.8c-42.6-15.5-93.8-36-93.8-36s57.7,36.7,92.8,55.1c-29.7-10-86.9-40.6-101.8-47
						c-5.9-2.5-20.4-17.2-37.5-19.1c0,0,3.3,3.4,7.7,8.4c1.9,1.2,9.7,14.8,9.7,14.8c2.3,1.1,26.6,13.1,39.4,24
						c0,0,54.7,36.4,68.5,48l0.3,0.1l42.6,4.4l38.8-0.8c22.8,0.7,31.5-18.3,30.2-38.6C518.3,526.2,524.1,427.9,501,364.4L501,364.4z
						 M407.8,346.5c-13.9-21.1-33-27.4-33-27.4c6.4-6.8,14.5-34.2,14.5-34.2c2.3-1.1,20.3,29.1,20.3,29.1l2.3,6.8L407.8,346.5
						L407.8,346.5z M457.1,452.8c0,0-34.8,0-64.9-10.8l23.8-13.7c0,0,25.5-3.4,38.2-1.1C467,429.4,457.1,452.8,457.1,452.8
						L457.1,452.8z"/>
				</g>
			</g>
			<path class="st2" d="M58.8,327.7c5.3,0,10,1.7,13.9,4.3c-0.9-9-1.4-18.1-1.4-27.3c0-12.4,0.9-24.5,2.6-36.5l-28.7-6.6
				c-2.1,14-3.2,28.4-3.2,43c0,11.2,0.6,22.1,1.9,33C46.1,333,50.5,327.7,58.8,327.7L58.8,327.7z"/>
		</g>
		<text transform="matrix(1.0152 0 0 1 144.3501 722.2607)" class="st3 st7 st8 st9">P</text>
		<text transform="matrix(1.0152 0 0 1 162.1001 722.2607)" class="st3 st7 st8">om</text>
		<text transform="matrix(1.0152 0 0 1 210.5 722.2607)" class="st3 st7 st8">p</text>
		<text transform="matrix(1.0152 0 0 1 230.1699 722.2607)" class="st3 st7 st8">y </text>
		<text transform="matrix(1.0152 0 0 1 254.0698 722.2607)" class="st3 st7 st8">C</text>
		<text transform="matrix(1.0152 0 0 1 274.27 722.2607)" class="st3 st7 st8">iepła</text>
		<text transform="matrix(1.0152 0 0 1 345.25 722.2607)" class="st7 st8"> </text>
		<text transform="matrix(1.0152 0 0 1 352.6699 722.2607)" class="st10 st7 st8">K</text>
		<text transform="matrix(1.0152 0 0 1 371.9902 722.2607)" class="st10 st7 st8">lim</text>
		<text transform="matrix(1.0152 0 0 1 417.6299 722.2607)" class="st10 st7 st8">a</text>
		<text transform="matrix(1.0152 0 0 1 434.3604 722.2607)" class="st10 st7 st8">t</text>
		<text transform="matrix(1.0152 0 0 1 446.2598 722.2607)" class="st10 st7 st8">yzacja</text>
		<text transform="matrix(1.0152 0 0 1 71 679.4619)" class="st2 st7 st11">CE</text>
		<text transform="matrix(1.0152 0 0 1 199.6401 679.4619)" class="st2 st7 st11">K</text>
		<text transform="matrix(1.0152 0 0 1 265.8799 679.4619)" class="st2 st7 st11 st12">A</text>
		<text transform="matrix(1.0152 0 0 1 330.0801 679.4619)" class="st3 st7 st11">TERM</text>
	</g>
</g>
</svg>
