<?xml version="1.0" encoding="utf-8"?>
<!-- Generator: Adobe Illustrator 27.4.1, SVG Export Plug-In . SVG Version: 6.00 Build 0)  -->
<svg version="1.1" id="Warstwa_1" xmlns="http://www.w3.org/2000/svg" xmlns:xlink="http://www.w3.org/1999/xlink" x="0px" y="0px"
	 viewBox="0 0 1600.8 460.8" style="enable-background:new 0 0 1600.8 460.8;" xml:space="preserve">
<style type="text/css">
	.st0{fill:#DE0301;}
	.st1{fill:#2175A6;}
	.st2{fill:#F9F9F9;}
	.st3{fill:#FFFFFF;}
	.st4{font-family:'ArialMT';}
	.st5{font-size:170px;}
	.st6{fill:none;stroke:#000000;stroke-width:0.75;stroke-miterlimit:10;}
	.st7{font-size:53px;}
	.st8{fill:none;stroke:#000000;stroke-width:0.5;stroke-miterlimit:10;}
</style>
<g id="Warstwa_1_00000001632590612562964320000014403278056417219484_">
</g>
<g id="Warstwa_2_00000174602004858550730320000018326693271528049582_">
	<g id="Layer_1">
		<g>
			<g>
				<polygon class="st0" points="88.8,338.7 119.5,333.5 119.5,187.9 97.9,187.9 226.7,98.2 245.2,111.4 268.5,95.1 226.7,67.2 
					26.3,201.2 88.8,201.2 				"/>
				<polygon class="st1" points="442.3,67.2 400.5,95.1 423.8,111.4 442.3,98.2 571.1,187.9 549.5,187.9 549.5,344.2 580.2,350.6 
					580.2,201.2 642.7,201.2 				"/>
				<path class="st2" d="M510.8,345.2c-88.3-15.1-203.7-19.3-293.7-13.4c-52.3,3.7-105,10-155.3,22.9l0,0
					c-14.5,3.4-21.9,16.8-15.2,27.7c6,9.9,20.8,13.9,33.1,9.1c22.3-7.4,45.6-13,68.9-17.9c60.1-12.5,122.4-19.3,184.6-21.2
					c102.7-3,205.3,7.9,304,31l30.9,8.5C668.2,391.8,593.8,359.4,510.8,345.2z"/>
				<path class="st3" d="M196.7,325.1c10.7-0.9,21.3-1.7,32-2.4V187.9h-19.2l125-89.6l127.1,89.6h-19.9v137
					c10.3,0.8,20.5,1.6,30.5,2.7V201.2h62.5l-200.3-134l-200.2,134h62.5L196.7,325.1L196.7,325.1z"/>
				<g>
					<path class="st0" d="M325.3,311.9c0,0-87.8,1.5-81.3-90.7c0,0,11.3,20,18.7,20.1c-3.9-0.1-1.4-18.4-1.1-19.8
						c5.3-19.2,28.1-31.3,43-46.2c15.8-15.6,32.1-35.3,35.5-55.4c3.4,16.4,14.3,38.2,19.6,50.7c9.6,22.9-3.5,57.7-15.3,79.6
						c-5.1,9.6-10.6,19-16.4,28.3c0,0-6.6,10.3-5.9,23.1c0,0-16.2-12.4-8.1-49.5c0,0,8.1-29.5,5-40.5c0,0-33.9,43.3-27.6,58.2
						c0,0-21.4-11.1-21.4-17.8C270.1,251.7,262,286.9,325.3,311.9z"/>
					<path class="st1" d="M343.9,268.6c0,0,37.3-63.1,22.3-99.1c0,0,77.8,47.1,52,108.2c0,0-24,42.7-84.4,34.2
						C334,311.9,325.3,291.1,343.9,268.6z"/>
					<path class="st3" d="M334,154.6c-5.3,13.9-16.2,26.4-27.7,37.9c-5,4.9-10.3,9.6-15.9,14.2c-7.5,5.8-13.1,12.4-13.6,20.8
						c-0.5,4.1-0.3,8.1-0.1,12.3c-1.2-4.1-2-8.1-2.3-12.4c-0.1-4.2,0.7-8.6,3.2-12.5c2.4-4.1,6-7.4,9.4-10.5
						c5.3-4.6,10.4-9.3,15.6-14.1C314.1,179,325.5,167.5,334,154.6L334,154.6z"/>
					<g>
						<path class="st3" d="M355.9,298.3L355.9,298.3c-1.1,0-2.2-0.8-2.2-1.6v-46.9c0-0.9,1-1.6,2.2-1.6l0,0c1.1,0,2.2,0.8,2.2,1.6
							v46.9C358.1,297.5,357.1,298.3,355.9,298.3z"/>
						<path class="st3" d="M354.7,285.6L354.7,285.6c0.8-0.6,2.3-0.6,3.1,0l9,6.9c0.8,0.6,0.8,1.7,0,2.4l0,0c-0.8,0.6-2.3,0.6-3.1,0
							l-9-6.9C353.9,287.2,353.9,286.2,354.7,285.6z"/>
						<path class="st3" d="M357.4,285.6L357.4,285.6c-0.8-0.6-2.3-0.6-3.1,0l-9,6.9c-0.8,0.6-0.8,1.7,0,2.4l0,0
							c0.8,0.6,2.3,0.6,3.1,0l9-6.9C358.3,287.2,358.3,286.2,357.4,285.6z"/>
						<path class="st3" d="M354.7,277.3L354.7,277.3c0.8-0.6,2.3-0.6,3.1,0l9,6.9c0.8,0.6,0.8,1.7,0,2.4l0,0c-0.8,0.6-2.3,0.6-3.1,0
							l-9-6.9C353.9,279,353.9,278,354.7,277.3z"/>
						<path class="st3" d="M357.4,277.3L357.4,277.3c-0.8-0.6-2.3-0.6-3.1,0l-9,6.9c-0.8,0.6-0.8,1.7,0,2.4l0,0
							c0.8,0.6,2.3,0.6,3.1,0l9-6.9C358.3,279,358.3,278,357.4,277.3z"/>
						<g>
							<path class="st3" d="M419.8,249.1L419.8,249.1c0,0.9-1,1.6-2.2,1.6h-61.3c-1.1,0-2.2-0.8-2.2-1.6l0,0c0-0.9,1-1.6,2.2-1.6
								h61.3C418.9,247.5,419.8,248.3,419.8,249.1z"/>
							<path class="st3" d="M403.3,250.1L403.3,250.1c-0.8-0.6-0.8-1.7,0-2.4l9-6.9c0.8-0.6,2.3-0.6,3.1,0l0,0
								c0.8,0.6,0.8,1.7,0,2.4l-9,6.9C405.6,250.8,404.2,250.8,403.3,250.1z"/>
							<path class="st3" d="M403.3,248.1L403.3,248.1c-0.8,0.6-0.8,1.7,0,2.4l9,6.9c0.8,0.6,2.3,0.6,3.1,0l0,0
								c0.8-0.6,0.8-1.7,0-2.4l-9-6.9C405.6,247.4,404.2,247.4,403.3,248.1z"/>
							<path class="st3" d="M392.6,250.1L392.6,250.1c-0.8-0.6-0.8-1.7,0-2.4l9-6.9c0.8-0.6,2.3-0.6,3.1,0l0,0
								c0.8,0.6,0.8,1.7,0,2.4l-9,6.9C394.7,250.8,393.4,250.8,392.6,250.1z"/>
							<path class="st3" d="M392.6,248.1L392.6,248.1c-0.8,0.6-0.8,1.7,0,2.4l9,6.9c0.8,0.6,2.3,0.6,3.1,0l0,0
								c0.8-0.6,0.8-1.7,0-2.4l-9-6.9C394.7,247.4,393.4,247.4,392.6,248.1z"/>
						</g>
						<path class="st3" d="M401.7,284.3L401.7,284.3c-0.8,0.6-2.3,0.6-3.1,0l-43.3-33.1c-0.8-0.6-0.8-1.7,0-2.4l0,0
							c0.8-0.6,2.3-0.6,3.1,0l43.3,33.1C402.5,282.7,402.5,283.7,401.7,284.3z"/>
						<path class="st3" d="M389.1,276.1L389.1,276.1c0-0.9,1-1.6,2.2-1.6H404c1.1,0,2.2,0.8,2.2,1.6l0,0c0,0.9-1,1.6-2.2,1.6h-12.7
							C390.1,277.7,389.1,277,389.1,276.1z"/>
						<path class="st3" d="M391,274.6L391,274.6c-1.1,0-2.2,0.8-2.2,1.6v9.7c0,0.9,1,1.6,2.2,1.6l0,0c1.1,0,2.2-0.8,2.2-1.6v-9.7
							C393.2,275.4,392.2,274.6,391,274.6z"/>
						<path class="st3" d="M381.5,270.2L381.5,270.2c0-0.9,1-1.6,2.2-1.6h12.7c1.1,0,2.2,0.8,2.2,1.6l0,0c0,0.9-1,1.6-2.2,1.6h-12.7
							C382.5,271.9,381.5,271.2,381.5,270.2z"/>
						<path class="st3" d="M383.5,268.8L383.5,268.8c-1.1,0-2.2,0.8-2.2,1.6v9.7c0,0.9,1,1.6,2.2,1.6l0,0c1.1,0,2.2-0.8,2.2-1.6
							v-9.7C385.6,269.5,384.6,268.8,383.5,268.8z"/>
						<path class="st3" d="M401.7,212.9L401.7,212.9c-0.8-0.6-2.3-0.6-3.1,0L355.3,246c-0.8,0.6-0.8,1.7,0,2.4l0,0
							c0.8,0.6,2.3,0.6,3.1,0l43.3-33.1C402.5,214.7,402.5,213.6,401.7,212.9z"/>
						<path class="st3" d="M389.1,221.2L389.1,221.2c0,0.9,1,1.6,2.2,1.6H404c1.1,0,2.2-0.8,2.2-1.6l0,0c0-0.9-1-1.6-2.2-1.6h-12.7
							C390.1,219.6,389.1,220.4,389.1,221.2z"/>
						<path class="st3" d="M391,222.7L391,222.7c-1.1,0-2.2-0.8-2.2-1.6v-9.7c0-0.9,1-1.6,2.2-1.6l0,0c1.1,0,2.2,0.8,2.2,1.6v9.7
							C393.2,221.9,392.2,222.7,391,222.7z"/>
						<path class="st3" d="M381.5,227L381.5,227c0,0.9,1,1.6,2.2,1.6h12.7c1.1,0,2.2-0.8,2.2-1.6l0,0c0-0.9-1-1.6-2.2-1.6h-12.7
							C382.5,225.4,381.5,226.2,381.5,227z"/>
						<path class="st3" d="M383.5,228.5L383.5,228.5c-1.1,0-2.2-0.8-2.2-1.6v-9.7c0-0.9,1-1.6,2.2-1.6l0,0c1.1,0,2.2,0.8,2.2,1.6
							v9.7C385.6,227.7,384.6,228.5,383.5,228.5z"/>
					</g>
				</g>
				<polygon class="st1" points="569.8,156.7 536.9,142.7 536.9,108.1 569.8,108.1 				"/>
				<rect x="529.2" y="102.2" class="st1" width="48.3" height="8.1"/>
				<polygon class="st0" points="97.3,156.7 130.3,142.7 130.3,108.1 97.3,108.1 				"/>
				<rect x="89.8" y="102.2" class="st0" width="48.3" height="8.1"/>
			</g>
		</g>
	</g>
	<text transform="matrix(1 0 0 1 777.8 242.1786)" class="st1 st4 st5">CK</text>
	<text transform="matrix(1 0 0 1 777.8 242.1786)" class="st6 st4 st5">CK</text>
	<text transform="matrix(1 0 0 1 1017.4 242.1786)" class="st0 st4 st5">Term</text>
	<text transform="matrix(1 0 0 1 1017.4 242.1786)" class="st6 st4 st5">Term</text>
	<text transform="matrix(1 0 0 1 635.9061 330.8995)" class="st1 st4 st7">Klimatyzacja </text>
	<text transform="matrix(1 0 0 1 635.9061 330.8995)" class="st8 st4 st7">Klimatyzacja </text>
	<text transform="matrix(1 0 0 1 948.1062 330.8995)" class="st0 st4 st7">Pompy Ciepła</text>
	<text transform="matrix(1 0 0 1 948.1062 330.8995)" class="st8 st4 st7">Pompy Ciepła</text>
	<text transform="matrix(1 0 0 1 1292.7061 330.8995)" class="st3 st4 st7">Wentylacja</text>
	<text transform="matrix(1 0 0 1 1292.7061 330.8995)" class="st8 st4 st7"> </text>
</g>
</svg>
