<?xml version="1.0" encoding="utf-8"?>
<!-- Generator: Adobe Illustrator 27.4.1, SVG Export Plug-In . SVG Version: 6.00 Build 0)  -->
<svg version="1.1" id="Warstwa_1" xmlns="http://www.w3.org/2000/svg" xmlns:xlink="http://www.w3.org/1999/xlink" x="0px" y="0px"
	 viewBox="0 0 1600.8 460.8" style="enable-background:new 0 0 1600.8 460.8;" xml:space="preserve">
<style type="text/css">
	.st0{display:none;}
	.st1{fill:#DE0301;}
	.st2{fill:#2175A6;}
	.st3{fill:#3B3B3B;}
	.st4{fill:#FFFFFF;}
	.st5{font-family:'ArialMT';}
	.st6{font-size:170px;}
	.st7{fill:none;stroke:#000000;stroke-width:0.75;stroke-miterlimit:10;}
	.st8{font-size:53px;}
	.st9{fill:none;stroke:#000000;stroke-width:0.5;stroke-miterlimit:10;}
</style>
<g id="Warstwa_1_00000155123159564360183580000008182972754820954283_" class="st0">
</g>
<g id="Warstwa_2_00000119076258779503679870000010671305280845766793_">
	<g>
		<g>
			<polygon class="st1" points="76.5,335.4 107.2,330.2 107.2,184.6 85.6,184.6 214.4,94.9 232.9,108.1 256.2,91.8 214.4,63.9 
				14,197.9 76.5,197.9 			"/>
			<polygon class="st2" points="430,63.9 388.2,91.8 411.5,108.1 430,94.9 558.8,184.6 537.2,184.6 537.2,340.9 567.9,347.3 
				567.9,197.9 630.4,197.9 			"/>
			<path class="st3" d="M498.5,341.9c-88.3-15.1-203.7-19.3-293.7-13.4c-52.3,3.7-105,10-155.3,22.9l0,0
				c-14.5,3.4-21.9,16.8-15.2,27.7c6,9.9,20.8,13.9,33.1,9.1c22.3-7.4,45.6-13,68.9-17.9c60.1-12.5,122.4-19.3,184.6-21.2
				c102.7-3,205.3,7.9,304,31l30.9,8.5C655.9,388.5,581.5,356.1,498.5,341.9z"/>
			<path class="st3" d="M184.4,321.8c10.7-0.9,21.3-1.7,32-2.4V184.6h-19.2l125-89.6l127.1,89.6h-19.9v137
				c10.3,0.8,20.5,1.6,30.5,2.7V197.9h62.5l-200.3-134l-200.2,134h62.5L184.4,321.8L184.4,321.8z"/>
			<g>
				<path class="st1" d="M313,308.6c0,0-87.8,1.5-81.3-90.7c0,0,11.3,20,18.7,20.1c-3.9-0.1-1.4-18.4-1.1-19.8
					c5.3-19.2,28.1-31.3,43-46.2c15.8-15.6,32.1-35.3,35.5-55.4c3.4,16.4,14.3,38.2,19.6,50.7c9.6,22.9-3.5,57.7-15.3,79.6
					c-5.1,9.6-10.6,19-16.4,28.3c0,0-6.6,10.3-5.9,23.1c0,0-16.2-12.4-8.1-49.5c0,0,8.1-29.5,5-40.5c0,0-33.9,43.3-27.6,58.2
					c0,0-21.4-11.1-21.4-17.8C257.8,248.4,249.7,283.6,313,308.6z"/>
				<path class="st2" d="M331.6,265.3c0,0,37.3-63.1,22.3-99.1c0,0,77.8,47.1,52,108.2c0,0-24,42.7-84.4,34.2
					C321.7,308.6,313,287.8,331.6,265.3z"/>
				<path class="st4" d="M321.7,151.3c-5.3,13.9-16.2,26.4-27.7,37.9c-5,4.9-10.3,9.6-15.9,14.2c-7.5,5.8-13.1,12.4-13.6,20.8
					c-0.5,4.1-0.3,8.1-0.1,12.3c-1.2-4.1-2-8.1-2.3-12.4c-0.1-4.2,0.7-8.6,3.2-12.5c2.4-4.1,6-7.4,9.4-10.5
					c5.3-4.6,10.4-9.3,15.6-14.1C301.8,175.7,313.2,164.2,321.7,151.3L321.7,151.3z"/>
				<g>
					<path class="st4" d="M343.6,295L343.6,295c-1.1,0-2.2-0.8-2.2-1.6v-46.9c0-0.9,1-1.6,2.2-1.6l0,0c1.1,0,2.2,0.8,2.2,1.6v46.9
						C345.8,294.2,344.8,295,343.6,295z"/>
					<path class="st4" d="M342.4,282.3L342.4,282.3c0.8-0.6,2.3-0.6,3.1,0l9,6.9c0.8,0.6,0.8,1.7,0,2.4l0,0c-0.8,0.6-2.3,0.6-3.1,0
						l-9-6.9C341.6,283.9,341.6,282.9,342.4,282.3z"/>
					<path class="st4" d="M345.1,282.3L345.1,282.3c-0.8-0.6-2.3-0.6-3.1,0l-9,6.9c-0.8,0.6-0.8,1.7,0,2.4l0,0
						c0.8,0.6,2.3,0.6,3.1,0l9-6.9C346,283.9,346,282.9,345.1,282.3z"/>
					<path class="st4" d="M342.4,274L342.4,274c0.8-0.6,2.3-0.6,3.1,0l9,6.9c0.8,0.6,0.8,1.7,0,2.4l0,0c-0.8,0.6-2.3,0.6-3.1,0
						l-9-6.9C341.6,275.7,341.6,274.7,342.4,274z"/>
					<path class="st4" d="M345.1,274L345.1,274c-0.8-0.6-2.3-0.6-3.1,0l-9,6.9c-0.8,0.6-0.8,1.7,0,2.4l0,0c0.8,0.6,2.3,0.6,3.1,0
						l9-6.9C346,275.7,346,274.7,345.1,274z"/>
					<g>
						<path class="st4" d="M407.5,245.8L407.5,245.8c0,0.9-1,1.6-2.2,1.6H344c-1.1,0-2.2-0.8-2.2-1.6l0,0c0-0.9,1-1.6,2.2-1.6h61.3
							C406.6,244.2,407.5,245,407.5,245.8z"/>
						<path class="st4" d="M391,246.8L391,246.8c-0.8-0.6-0.8-1.7,0-2.4l9-6.9c0.8-0.6,2.3-0.6,3.1,0l0,0c0.8,0.6,0.8,1.7,0,2.4
							l-9,6.9C393.3,247.5,391.9,247.5,391,246.8z"/>
						<path class="st4" d="M391,244.8L391,244.8c-0.8,0.6-0.8,1.7,0,2.4l9,6.9c0.8,0.6,2.3,0.6,3.1,0l0,0c0.8-0.6,0.8-1.7,0-2.4
							l-9-6.9C393.3,244.1,391.9,244.1,391,244.8z"/>
						<path class="st4" d="M380.3,246.8L380.3,246.8c-0.8-0.6-0.8-1.7,0-2.4l9-6.9c0.8-0.6,2.3-0.6,3.1,0l0,0c0.8,0.6,0.8,1.7,0,2.4
							l-9,6.9C382.4,247.5,381.1,247.5,380.3,246.8z"/>
						<path class="st4" d="M380.3,244.8L380.3,244.8c-0.8,0.6-0.8,1.7,0,2.4l9,6.9c0.8,0.6,2.3,0.6,3.1,0l0,0c0.8-0.6,0.8-1.7,0-2.4
							l-9-6.9C382.4,244.1,381.1,244.1,380.3,244.8z"/>
					</g>
					<path class="st4" d="M389.4,281L389.4,281c-0.8,0.6-2.3,0.6-3.1,0L343,247.9c-0.8-0.6-0.8-1.7,0-2.4l0,0c0.8-0.6,2.3-0.6,3.1,0
						l43.3,33.1C390.2,279.4,390.2,280.4,389.4,281z"/>
					<path class="st4" d="M376.8,272.8L376.8,272.8c0-0.9,1-1.6,2.2-1.6h12.7c1.1,0,2.2,0.8,2.2,1.6l0,0c0,0.9-1,1.6-2.2,1.6H379
						C377.8,274.4,376.8,273.7,376.8,272.8z"/>
					<path class="st4" d="M378.7,271.3L378.7,271.3c-1.1,0-2.2,0.8-2.2,1.6v9.7c0,0.9,1,1.6,2.2,1.6l0,0c1.1,0,2.2-0.8,2.2-1.6v-9.7
						C380.9,272.1,379.9,271.3,378.7,271.3z"/>
					<path class="st4" d="M369.2,266.9L369.2,266.9c0-0.9,1-1.6,2.2-1.6h12.7c1.1,0,2.2,0.8,2.2,1.6l0,0c0,0.9-1,1.6-2.2,1.6h-12.7
						C370.2,268.6,369.2,267.9,369.2,266.9z"/>
					<path class="st4" d="M371.2,265.5L371.2,265.5c-1.1,0-2.2,0.8-2.2,1.6v9.7c0,0.9,1,1.6,2.2,1.6l0,0c1.1,0,2.2-0.8,2.2-1.6v-9.7
						C373.3,266.2,372.3,265.5,371.2,265.5z"/>
					<path class="st4" d="M389.4,209.6L389.4,209.6c-0.8-0.6-2.3-0.6-3.1,0L343,242.7c-0.8,0.6-0.8,1.7,0,2.4l0,0
						c0.8,0.6,2.3,0.6,3.1,0l43.3-33.1C390.2,211.4,390.2,210.3,389.4,209.6z"/>
					<path class="st4" d="M376.8,217.9L376.8,217.9c0,0.9,1,1.6,2.2,1.6h12.7c1.1,0,2.2-0.8,2.2-1.6l0,0c0-0.9-1-1.6-2.2-1.6H379
						C377.8,216.3,376.8,217.1,376.8,217.9z"/>
					<path class="st4" d="M378.7,219.4L378.7,219.4c-1.1,0-2.2-0.8-2.2-1.6v-9.7c0-0.9,1-1.6,2.2-1.6l0,0c1.1,0,2.2,0.8,2.2,1.6v9.7
						C380.9,218.6,379.9,219.4,378.7,219.4z"/>
					<path class="st4" d="M369.2,223.7L369.2,223.7c0,0.9,1,1.6,2.2,1.6h12.7c1.1,0,2.2-0.8,2.2-1.6l0,0c0-0.9-1-1.6-2.2-1.6h-12.7
						C370.2,222.1,369.2,222.9,369.2,223.7z"/>
					<path class="st4" d="M371.2,225.2L371.2,225.2c-1.1,0-2.2-0.8-2.2-1.6v-9.7c0-0.9,1-1.6,2.2-1.6l0,0c1.1,0,2.2,0.8,2.2,1.6v9.7
						C373.3,224.4,372.3,225.2,371.2,225.2z"/>
				</g>
			</g>
			<polygon class="st2" points="557.5,153.4 524.6,139.4 524.6,104.8 557.5,104.8 			"/>
			<rect x="516.9" y="98.9" class="st2" width="48.3" height="8.1"/>
			<polygon class="st1" points="85,153.4 118,139.4 118,104.8 85,104.8 			"/>
			<rect x="77.5" y="98.9" class="st1" width="48.3" height="8.1"/>
		</g>
	</g>
	<text transform="matrix(1 0 0 1 759.7234 233.8768)" class="st2 st5 st6">CK</text>
	<text transform="matrix(1 0 0 1 759.7234 233.8768)" class="st7 st5 st6">CK</text>
	<text transform="matrix(1 0 0 1 999.3235 233.8768)" class="st1 st5 st6">Term</text>
	<text transform="matrix(1 0 0 1 999.3235 233.8768)" class="st7 st5 st6">Term</text>
	<text transform="matrix(1 0 0 1 626.5507 318.3961)" class="st2 st5 st8">Klimatyzacja </text>
	<text transform="matrix(1 0 0 1 626.5507 318.3961)" class="st9 st5 st8">Klimatyzacja </text>
	<text transform="matrix(1 0 0 1 938.7507 318.3961)" class="st1 st5 st8">Pompy Ciepła</text>
	
		<text transform="matrix(1 0 0 1 934.8816 744.0925)" class="st5 st8" style="display:none;fill:none;stroke:#000000;stroke-width:0.5;stroke-miterlimit:10;enable-background:new    ;">Pompy Ciepła</text>
	<text transform="matrix(1 0 0 1 1283.3506 318.3961)" class="st3 st5 st8">Wentylacja </text>
</g>
</svg>
